<svg width="6" height="10" viewBox="0 0 6 10" fill="none" xmlns="http://www.w3.org/2000/svg">
<path d="M3.78855 4.99993L0.394176 1.60576C0.278899 1.49035 0.219871 1.34528 0.217093 1.17055C0.214454 0.995971 0.273482 0.848262 0.394176 0.727428C0.51501 0.606734 0.661398 0.546387 0.833343 0.546387C1.00529 0.546387 1.15168 0.606734 1.27251 0.727428L5.01772 4.47264C5.09563 4.55069 5.15064 4.63299 5.18272 4.71951C5.2148 4.80604 5.23084 4.89951 5.23084 4.99993C5.23084 5.10035 5.2148 5.19382 5.18272 5.28035C5.15064 5.36687 5.09563 5.44917 5.01772 5.52722L1.27251 9.27243C1.15709 9.38771 1.01202 9.44674 0.837301 9.44951C0.662718 9.45215 0.51501 9.39312 0.394176 9.27243C0.273482 9.1516 0.213135 9.00521 0.213135 8.83326C0.213135 8.66132 0.273482 8.51493 0.394176 8.3941L3.78855 4.99993Z" fill="white"/>
</svg>
