<svg width="70" height="62" viewBox="0 0 70 62" fill="none" xmlns="http://www.w3.org/2000/svg">
<path d="M0 12C0 5.37258 5.37258 0 12 0H58C64.6274 0 70 5.37258 70 12V50C70 56.6274 64.6274 62 58 62H12C5.37258 62 0 56.6274 0 50V12Z" fill="#F7FBFF"/>
<path d="M35.6496 8.31047C35.274 7.98659 34.7259 7.98653 34.3502 8.31029C32.4 9.99093 26.5118 15.0572 22.9463 18.04C22.6925 18.27 22.5 18.605 22.5 19C22.5 19.6912 23.0588 20.25 23.75 20.25H26.25V29C26.25 29.6912 26.8088 30.25 27.5 30.25H31.25C31.9412 30.25 32.5 29.69 32.5 29V24H37.5V29C37.5 29.69 38.0588 30.25 38.75 30.25H42.5C43.1912 30.25 43.75 29.6912 43.75 29V20.25H46.25C46.9412 20.25 47.5 19.6912 47.5 19C47.5 18.605 47.3075 18.27 47.0213 18.04C43.4805 15.0573 37.5987 9.9913 35.6496 8.31047Z" fill="#1A75FF"/>
<path d="M39.2041 53.0117H30.7412V49.4707H39.2041V53.0117ZM32.0264 52.0137H37.9463V50.4688H32.0264V52.0137ZM39.9424 42.8809H29.9756V41.8828H34.3369V40.748H35.6357V41.8828H39.9424V42.8809ZM34.9795 43.3184C36.2829 43.3184 37.2786 43.4665 37.9668 43.7627C38.6549 44.0544 38.999 44.485 38.999 45.0547C38.999 45.5742 38.7119 45.9798 38.1377 46.2715C37.5635 46.5586 36.7295 46.7272 35.6357 46.7773V47.6113H40.5713V48.6367H29.4014V47.6113H34.3369V46.7773C33.2432 46.7272 32.4046 46.5586 31.8213 46.2715C31.2425 45.9798 30.9554 45.5742 30.96 45.0547C30.9554 44.485 31.2995 44.0544 31.9922 43.7627C32.6849 43.4665 33.6807 43.3184 34.9795 43.3184ZM34.9795 44.207C33.2204 44.2207 32.3408 44.5033 32.3408 45.0547C32.3408 45.3281 32.5664 45.5378 33.0176 45.6836C33.4733 45.8294 34.1273 45.9023 34.9795 45.9023C35.8363 45.9023 36.4902 45.8294 36.9414 45.6836C37.3926 45.5378 37.6182 45.3281 37.6182 45.0547C37.6182 44.5033 36.7386 44.2207 34.9795 44.207Z" fill="#1A75FF"/>
</svg>
