<svg width="82" height="82" viewBox="0 0 82 82" fill="none" xmlns="http://www.w3.org/2000/svg">
<g filter="url(#filter0_d_680_3079)">
<path d="M12 41C12 24.9837 24.9837 12 41 12C57.0163 12 70 24.9837 70 41C70 57.0163 57.0163 70 41 70C24.9837 70 12 57.0163 12 41Z" fill="#1A75FF" shape-rendering="crispEdges"/>
<mask id="mask0_680_3079" style="mask-type:alpha" maskUnits="userSpaceOnUse" x="22" y="22" width="38" height="38">
<rect x="22" y="22" width="38" height="38" fill="#D9D9D9"/>
</mask>
<g mask="url(#mask0_680_3079)">
<path d="M40.9999 43.3752C39.8937 43.3752 38.9574 42.992 38.1911 42.2257C37.4247 41.4593 37.0415 40.5231 37.0415 39.4168V29.9168C37.0415 28.8106 37.4247 27.8743 38.1911 27.108C38.9574 26.3417 39.8937 25.9585 40.9999 25.9585C42.1061 25.9585 43.0424 26.3417 43.8087 27.108C44.5751 27.8743 44.9582 28.8106 44.9582 29.9168V39.4168C44.9582 40.5231 44.5751 41.4593 43.8087 42.2257C43.0424 42.992 42.1061 43.3752 40.9999 43.3752ZM39.8124 53.6668V49.6353C37.4556 49.3632 35.4358 48.395 33.753 46.7306C32.0704 45.066 31.0849 43.0371 30.7965 40.6439C30.754 40.3069 30.8423 40.0182 31.0613 39.7778C31.2806 39.5372 31.5587 39.4168 31.8957 39.4168C32.2327 39.4168 32.5148 39.5331 32.742 39.7656C32.9695 39.9978 33.1208 40.2824 33.196 40.6194C33.4842 42.5582 34.3707 44.1618 35.8556 45.4303C37.3405 46.6991 39.0553 47.3335 40.9999 47.3335C42.9709 47.3335 44.6922 46.6925 46.1639 45.4105C47.6356 44.1288 48.5156 42.5318 48.8037 40.6194C48.8789 40.2824 49.0303 39.9978 49.2578 39.7656C49.485 39.5331 49.7671 39.4168 50.1041 39.4168C50.441 39.4168 50.7192 39.5372 50.9385 39.7778C51.1575 40.0182 51.2458 40.3069 51.2033 40.6439C50.9149 42.9843 49.936 44.9976 48.2666 46.6835C46.597 48.3693 44.5706 49.3532 42.1874 49.6353V53.6668C42.1874 54.0038 42.0736 54.2859 41.8462 54.5131C41.619 54.7406 41.3369 54.8543 40.9999 54.8543C40.6629 54.8543 40.3808 54.7406 40.1536 54.5131C39.9261 54.2859 39.8124 54.0038 39.8124 53.6668Z" fill="white"/>
</g>
</g>
<defs>
<filter id="filter0_d_680_3079" x="0" y="0" width="82" height="82" filterUnits="userSpaceOnUse" color-interpolation-filters="sRGB">
<feFlood flood-opacity="0" result="BackgroundImageFix"/>
<feColorMatrix in="SourceAlpha" type="matrix" values="0 0 0 0 0 0 0 0 0 0 0 0 0 0 0 0 0 0 127 0" result="hardAlpha"/>
<feOffset/>
<feGaussianBlur stdDeviation="6"/>
<feComposite in2="hardAlpha" operator="out"/>
<feColorMatrix type="matrix" values="0 0 0 0 0.435294 0 0 0 0 0.443137 0 0 0 0 0.45098 0 0 0 0.1 0"/>
<feBlend mode="normal" in2="BackgroundImageFix" result="effect1_dropShadow_680_3079"/>
<feBlend mode="normal" in="SourceGraphic" in2="effect1_dropShadow_680_3079" result="shape"/>
</filter>
</defs>
</svg>
