<svg width="70" height="62" viewBox="0 0 70 62" fill="none" xmlns="http://www.w3.org/2000/svg">
<path d="M35 19C37.7614 19 40 16.7614 40 14C40 11.2386 37.7614 9 35 9C32.2386 9 30 11.2386 30 14C30 16.7614 32.2386 19 35 19Z" fill="#D3D5D7"/>
<path d="M45 27.75V29C45 29.3315 44.8683 29.6495 44.6339 29.8839C44.3995 30.1183 44.0815 30.25 43.75 30.25H26.25C25.9185 30.25 25.6005 30.1183 25.3661 29.8839C25.1317 29.6495 25 29.3315 25 29V27.75C25 25.7609 25.7902 23.8532 27.1967 22.4467C28.6032 21.0402 30.5109 20.25 32.5 20.25H37.5C39.4891 20.25 41.3968 21.0402 42.8033 22.4467C44.2098 23.8532 45 25.7609 45 27.75Z" fill="#D3D5D7"/>
<path d="M29.6849 50.0859H23.9564V42.1289H29.6849V50.0859ZM25.2279 49.0332H28.3998V43.1543H25.2279V49.0332ZM33.0345 45.7109H35.0033V46.8047H33.0345V53.1621H31.7357V40.9121H33.0345V45.7109ZM45.4557 53.1895H44.1569V40.9121H45.4557V53.1895ZM38.9069 41.8281C39.513 41.8281 40.0553 42.0059 40.5338 42.3613C41.0123 42.7122 41.386 43.2135 41.6549 43.8652C41.9284 44.5124 42.0651 45.2643 42.0651 46.1211C42.0651 46.9824 41.9284 47.7389 41.6549 48.3906C41.386 49.0423 41.0123 49.5459 40.5338 49.9014C40.0553 50.2523 39.513 50.4277 38.9069 50.4277C38.2916 50.4277 37.7448 50.2523 37.2663 49.9014C36.7877 49.5459 36.4118 49.0446 36.1383 48.3975C35.8694 47.7458 35.735 46.987 35.735 46.1211C35.735 45.2598 35.8694 44.5055 36.1383 43.8584C36.4118 43.2067 36.7877 42.7054 37.2663 42.3545C37.7448 42.0036 38.2916 41.8281 38.9069 41.8281ZM38.9069 42.9902C38.5286 42.9902 38.1937 43.1178 37.902 43.373C37.6149 43.6283 37.3916 43.9928 37.2321 44.4668C37.0726 44.9362 36.9928 45.4876 36.9928 46.1211C36.9928 46.7591 37.0726 47.3151 37.2321 47.7891C37.3916 48.263 37.6149 48.6276 37.902 48.8828C38.1937 49.138 38.5286 49.2656 38.9069 49.2656C39.2806 49.2656 39.611 49.138 39.8981 48.8828C40.1852 48.6276 40.4085 48.263 40.568 47.7891C40.7275 47.3151 40.8073 46.7591 40.8073 46.1211C40.8073 45.4876 40.7275 44.9362 40.568 44.4668C40.4085 43.9928 40.1852 43.6283 39.8981 43.373C39.611 43.1178 39.2806 42.9902 38.9069 42.9902Z" fill="#A1A3A5"/>
</svg>
