<svg width="137" height="44" viewBox="0 0 137 44" fill="none" xmlns="http://www.w3.org/2000/svg">
<g filter="url(#filter0_d_552_725)">
<path d="M4 10C4 5.58172 7.58172 2 12 2H125C129.418 2 133 5.58172 133 10V28C133 32.4183 129.418 36 125 36H12C7.58173 36 4 32.4183 4 28V10Z" fill="#FEE6C6" shape-rendering="crispEdges"/>
<path d="M26.7551 25.1895H25.4563V12.9121H26.7551V25.1895ZM20.2063 13.8281C20.8124 13.8281 21.3547 14.0059 21.8332 14.3613C22.3118 14.7122 22.6855 15.2135 22.9543 15.8652C23.2278 16.5124 23.3645 17.2643 23.3645 18.1211C23.3645 18.9824 23.2278 19.7389 22.9543 20.3906C22.6855 21.0423 22.3118 21.5459 21.8332 21.9014C21.3547 22.2523 20.8124 22.4277 20.2063 22.4277C19.5911 22.4277 19.0442 22.2523 18.5657 21.9014C18.0871 21.5459 17.7112 21.0446 17.4377 20.3975C17.1689 19.7458 17.0344 18.987 17.0344 18.1211C17.0344 17.2598 17.1689 16.5055 17.4377 15.8584C17.7112 15.2067 18.0871 14.7054 18.5657 14.3545C19.0442 14.0036 19.5911 13.8281 20.2063 13.8281ZM20.2063 14.9902C19.828 14.9902 19.4931 15.1178 19.2014 15.373C18.9143 15.6283 18.691 15.9928 18.5315 16.4668C18.372 16.9362 18.2922 17.4876 18.2922 18.1211C18.2922 18.7591 18.372 19.3151 18.5315 19.7891C18.691 20.263 18.9143 20.6276 19.2014 20.8828C19.4931 21.138 19.828 21.2656 20.2063 21.2656C20.58 21.2656 20.9104 21.138 21.1975 20.8828C21.4846 20.6276 21.7079 20.263 21.8674 19.7891C22.0269 19.3151 22.1067 18.7591 22.1067 18.1211C22.1067 17.4876 22.0269 16.9362 21.8674 16.4668C21.7079 15.9928 21.4846 15.6283 21.1975 15.373C20.9104 15.1178 20.58 14.9902 20.2063 14.9902ZM38.6431 21.1562H37.3443V17.3691H34.8423V16.3027H37.3443V12.9258H38.6431V21.1562ZM34.7603 13.8691C34.7603 15.4551 34.284 16.8063 33.3316 17.9229C32.3791 19.0348 30.9959 19.8757 29.1821 20.4453L28.6079 19.4199C30.0389 18.987 31.16 18.3854 31.9712 17.6152C32.7824 16.8451 33.2495 15.9473 33.3726 14.9219H29.2368V13.8691H34.7603ZM35.2525 20.6504C35.2525 21.1927 35.4279 21.7008 35.7788 22.1748C36.1297 22.6442 36.6105 23.0452 37.2212 23.3779C37.8319 23.7061 38.52 23.9362 39.2857 24.0684L38.7525 25.0938C37.8137 24.9297 36.9774 24.6198 36.2437 24.1641C35.5145 23.7083 34.9676 23.1478 34.603 22.4824C34.2339 23.1478 33.6802 23.7083 32.9419 24.1641C32.2082 24.6243 31.3651 24.9434 30.4126 25.1211L29.9068 24.082C30.6724 23.959 31.3628 23.7334 31.978 23.4053C32.5933 23.0726 33.0764 22.667 33.4273 22.1885C33.7827 21.71 33.9627 21.1973 33.9673 20.6504V20.1445H35.2525V20.6504ZM51.4197 20.3496H40.2498V19.3105H51.4197V20.3496ZM50.1619 24.9023H41.658V21.3477H42.9705V23.8496H50.1619V24.9023ZM45.8279 13.3223C46.7075 13.3177 47.4754 13.4134 48.1316 13.6094C48.7924 13.8053 49.3029 14.0879 49.6629 14.457C50.0229 14.8262 50.2029 15.2637 50.2029 15.7695C50.2029 16.2799 50.0229 16.722 49.6629 17.0957C49.3074 17.4648 48.7993 17.7497 48.1385 17.9502C47.4777 18.1507 46.7075 18.2533 45.8279 18.2578C44.9438 18.2533 44.1714 18.1507 43.5105 17.9502C42.8543 17.7497 42.3462 17.4648 41.9861 17.0957C41.6307 16.722 41.4529 16.2799 41.4529 15.7695C41.4529 15.2637 41.6307 14.8262 41.9861 14.457C42.3462 14.0879 42.8543 13.8053 43.5105 13.6094C44.1714 13.4134 44.9438 13.3177 45.8279 13.3223ZM45.8279 14.3613C45.2081 14.3613 44.6681 14.4183 44.2078 14.5322C43.7521 14.6462 43.4012 14.8102 43.1551 15.0244C42.909 15.234 42.7882 15.4824 42.7928 15.7695C42.7882 16.0658 42.9067 16.321 43.1482 16.5352C43.3943 16.7493 43.7452 16.9134 44.201 17.0273C44.6613 17.1367 45.2036 17.1914 45.8279 17.1914C46.4523 17.1914 46.9923 17.1367 47.448 17.0273C47.9038 16.9134 48.2524 16.7493 48.4939 16.5352C48.74 16.321 48.8631 16.0658 48.8631 15.7695C48.8631 15.4824 48.74 15.234 48.4939 15.0244C48.2479 14.8102 47.8969 14.6462 47.4412 14.5322C46.9855 14.4183 46.4477 14.3613 45.8279 14.3613ZM66.4046 20.9922H61.4007V25.1484H60.1293V20.9922H55.1937V19.9395H66.4046V20.9922ZM64.9964 18.3809H56.6019V13.5684H64.9964V18.3809ZM57.8734 17.3691H63.6976V14.6074H57.8734V17.3691ZM77.2399 21.2656H75.9411V17.2598H73.5485C73.4619 17.7383 73.2728 18.1621 72.9811 18.5312C72.6894 18.9004 72.3226 19.1852 71.8805 19.3857C71.4384 19.5863 70.9508 19.6842 70.4176 19.6797C69.8069 19.6842 69.2578 19.5612 68.7702 19.3105C68.2825 19.0553 67.8997 18.6999 67.6217 18.2441C67.3437 17.7884 67.2047 17.2734 67.2047 16.6992C67.2047 16.1204 67.3437 15.6077 67.6217 15.1611C67.8997 14.71 68.2825 14.359 68.7702 14.1084C69.2578 13.8577 69.8069 13.7324 70.4176 13.7324C70.9599 13.7324 71.4544 13.835 71.901 14.04C72.3522 14.2451 72.7213 14.5345 73.0084 14.9082C73.3001 15.2819 73.4847 15.7148 73.5621 16.207H75.9411V12.9121H77.2399V21.2656ZM70.4176 14.8262C70.0394 14.8262 69.6998 14.9059 69.3991 15.0654C69.1028 15.2249 68.8704 15.4482 68.7018 15.7354C68.5332 16.0179 68.4489 16.3392 68.4489 16.6992C68.4489 17.0684 68.5332 17.3965 68.7018 17.6836C68.8704 17.9661 69.1028 18.1872 69.3991 18.3467C69.6998 18.5016 70.0394 18.5768 70.4176 18.5723C70.7822 18.5768 71.1126 18.5016 71.4088 18.3467C71.705 18.1872 71.9375 17.9661 72.1061 17.6836C72.2747 17.3965 72.359 17.0684 72.359 16.6992C72.359 16.3392 72.2747 16.0179 72.1061 15.7354C71.9375 15.4482 71.705 15.2249 71.4088 15.0654C71.1126 14.9059 70.7822 14.8262 70.4176 14.8262ZM73.8903 20.8008C73.8903 21.3158 74.0657 21.8011 74.4166 22.2568C74.7721 22.7126 75.2597 23.0999 75.8795 23.4189C76.5039 23.7334 77.2034 23.9499 77.9782 24.0684L77.4586 25.0938C76.497 24.9342 75.6403 24.6266 74.8883 24.1709C74.1409 23.7152 73.5849 23.1546 73.2203 22.4893C72.8512 23.1501 72.2884 23.7083 71.5319 24.1641C70.7799 24.6243 69.9209 24.9342 68.9547 25.0938L68.4899 24.0684C69.2418 23.9453 69.9277 23.722 70.5475 23.3984C71.1673 23.0749 71.6572 22.6852 72.0172 22.2295C72.3772 21.7738 72.5595 21.2975 72.5641 20.8008V20.3633H73.8903V20.8008ZM82.3193 13.3223C82.9299 13.3268 83.4768 13.4476 83.9599 13.6846C84.4475 13.917 84.8303 14.2428 85.1083 14.6621C85.3863 15.0768 85.5276 15.5462 85.5321 16.0703C85.5276 16.599 85.3863 17.0706 85.1083 17.4854C84.8303 17.9001 84.4475 18.2236 83.9599 18.4561C83.4768 18.6885 82.9299 18.8047 82.3193 18.8047C81.704 18.8047 81.1503 18.6885 80.6581 18.4561C80.1705 18.2236 79.7877 17.9001 79.5097 17.4854C79.2317 17.0706 79.0927 16.599 79.0927 16.0703C79.0927 15.5462 79.2317 15.0768 79.5097 14.6621C79.7877 14.2428 80.1705 13.917 80.6581 13.6846C81.1503 13.4476 81.704 13.3268 82.3193 13.3223ZM82.3193 14.416C81.9456 14.4115 81.6083 14.4775 81.3075 14.6143C81.0113 14.751 80.7789 14.9469 80.6103 15.2021C80.4417 15.4528 80.3596 15.7422 80.3642 16.0703C80.3596 16.403 80.4394 16.6969 80.6034 16.9521C80.7721 17.2074 81.0045 17.4056 81.3007 17.5469C81.6015 17.6836 81.941 17.752 82.3193 17.752C82.693 17.752 83.0279 17.6813 83.3241 17.54C83.6204 17.3988 83.8528 17.2028 84.0214 16.9521C84.19 16.6969 84.2743 16.403 84.2743 16.0703C84.2743 15.7422 84.19 15.4528 84.0214 15.2021C83.8528 14.9469 83.6181 14.751 83.3173 14.6143C83.0211 14.4775 82.6884 14.4115 82.3193 14.416ZM89.0048 19.1465H87.706V12.9121H89.0048V19.1465ZM89.0048 22.7969H82.2509V23.9727H89.415V25.0117H80.9931V21.8262H87.7196V20.7461H80.9521V19.707H89.0048V22.7969ZM100.401 17.8887H102.178V18.9551H100.401V25.1621H99.1018V12.9121H100.401V17.8887ZM94.3576 14.2246C94.3576 15.3275 94.2756 16.3483 94.1115 17.2871C93.952 18.2259 93.6672 19.1305 93.257 20.001C92.8514 20.8714 92.2932 21.6849 91.5822 22.4414L90.5568 21.7168C91.4136 20.8281 92.038 19.862 92.4299 18.8184C92.8264 17.7702 93.0588 16.5944 93.1272 15.291H90.9943V14.2246H94.3576ZM97.7346 14.2246C97.7346 15.4049 97.6662 16.5033 97.5295 17.5195C97.3928 18.5312 97.1307 19.5293 96.7434 20.5137C96.356 21.498 95.8068 22.4095 95.0959 23.248L94.0568 22.5371C94.9091 21.5436 95.5175 20.4499 95.882 19.2559C96.2512 18.0618 96.4631 16.7402 96.5178 15.291H94.7541V14.2246H97.7346ZM113.697 23.6309H102.486V22.5508H105.166V19.3516C104.655 19.069 104.259 18.7113 103.976 18.2783C103.694 17.8454 103.552 17.36 103.552 16.8223C103.552 16.1888 103.744 15.6305 104.126 15.1475C104.514 14.6644 105.049 14.2907 105.733 14.0264C106.416 13.7575 107.194 13.623 108.064 13.623C108.939 13.623 109.718 13.7575 110.402 14.0264C111.09 14.2907 111.625 14.6644 112.008 15.1475C112.396 15.6305 112.589 16.1888 112.589 16.8223C112.589 17.3555 112.453 17.8363 112.179 18.2646C111.906 18.6885 111.518 19.0417 111.017 19.3242V22.5508H113.697V23.6309ZM108.064 14.6621C107.426 14.6621 106.861 14.751 106.369 14.9287C105.876 15.1019 105.494 15.3525 105.22 15.6807C104.947 16.0042 104.81 16.3848 104.81 16.8223C104.81 17.2552 104.947 17.6357 105.22 17.9639C105.494 18.292 105.876 18.5472 106.369 18.7295C106.861 18.9072 107.426 18.9961 108.064 18.9961C108.697 18.9961 109.26 18.9072 109.752 18.7295C110.249 18.5472 110.637 18.292 110.915 17.9639C111.193 17.6357 111.332 17.2552 111.332 16.8223C111.332 16.3893 111.193 16.0088 110.915 15.6807C110.641 15.3525 110.256 15.1019 109.759 14.9287C109.267 14.751 108.702 14.6621 108.064 14.6621ZM109.705 22.5508V19.8232C109.208 19.9463 108.661 20.0078 108.064 20.0078C107.49 20.0078 106.952 19.9486 106.451 19.8301V22.5508H109.705ZM116.315 21.0605C116.32 20.4863 116.377 20.0215 116.486 19.666C116.6 19.306 116.757 19.0189 116.958 18.8047C117.158 18.5859 117.427 18.3717 117.764 18.1621C118.439 17.7428 118.776 17.2188 118.776 16.5898C118.776 16.3118 118.71 16.068 118.578 15.8584C118.45 15.6442 118.273 15.4801 118.045 15.3662C117.821 15.2523 117.573 15.1953 117.3 15.1953C117.044 15.1953 116.805 15.25 116.582 15.3594C116.358 15.4642 116.174 15.626 116.028 15.8447C115.887 16.0635 115.805 16.3346 115.782 16.6582H114.305C114.324 16.0977 114.465 15.6146 114.729 15.209C114.998 14.7988 115.356 14.4889 115.803 14.2793C116.249 14.0697 116.748 13.9648 117.3 13.9648C117.883 13.9648 118.398 14.0765 118.844 14.2998C119.296 14.5186 119.644 14.8262 119.89 15.2227C120.141 15.6191 120.266 16.0749 120.266 16.5898C120.266 17.1185 120.148 17.5765 119.911 17.9639C119.674 18.3467 119.328 18.6771 118.872 18.9551C118.589 19.1237 118.366 19.2992 118.202 19.4814C118.042 19.6637 117.922 19.8802 117.84 20.1309C117.762 20.3815 117.719 20.6914 117.71 21.0605V21.1426H116.315V21.0605ZM117.067 24.0957C116.894 24.0957 116.73 24.0524 116.575 23.9658C116.425 23.8792 116.306 23.7607 116.219 23.6104C116.133 23.46 116.092 23.2982 116.096 23.125C116.092 22.9518 116.133 22.79 116.219 22.6396C116.306 22.4893 116.425 22.3708 116.575 22.2842C116.73 22.1976 116.894 22.1543 117.067 22.1543C117.236 22.1543 117.395 22.1976 117.546 22.2842C117.696 22.3708 117.815 22.4893 117.901 22.6396C117.992 22.79 118.038 22.9518 118.038 23.125C118.038 23.2982 117.992 23.46 117.901 23.6104C117.815 23.7607 117.696 23.8792 117.546 23.9658C117.395 24.0524 117.236 24.0957 117.067 24.0957Z" fill="#FF9200"/>
</g>
<path d="M68.5 44L64 36L73 36L68.5 44Z" fill="#FEE6C6"/>
<defs>
<filter id="filter0_d_552_725" x="0" y="0" width="137" height="42" filterUnits="userSpaceOnUse" color-interpolation-filters="sRGB">
<feFlood flood-opacity="0" result="BackgroundImageFix"/>
<feColorMatrix in="SourceAlpha" type="matrix" values="0 0 0 0 0 0 0 0 0 0 0 0 0 0 0 0 0 0 127 0" result="hardAlpha"/>
<feOffset dy="2"/>
<feGaussianBlur stdDeviation="2"/>
<feComposite in2="hardAlpha" operator="out"/>
<feColorMatrix type="matrix" values="0 0 0 0 1 0 0 0 0 0.573222 0 0 0 0 0 0 0 0 0.1 0"/>
<feBlend mode="normal" in2="BackgroundImageFix" result="effect1_dropShadow_552_725"/>
<feBlend mode="normal" in="SourceGraphic" in2="effect1_dropShadow_552_725" result="shape"/>
</filter>
</defs>
</svg>
