<svg width="149" height="44" viewBox="0 0 149 44" fill="none" xmlns="http://www.w3.org/2000/svg">
<g filter="url(#filter0_d_785_4840)">
<path d="M4 10C4 5.58172 7.58172 2 12 2H137C141.418 2 145 5.58172 145 10V28C145 32.4183 141.418 36 137 36H12C7.58172 36 4 32.4183 4 28V10Z" fill="#FEE6C6" shape-rendering="crispEdges"/>
<path d="M26.3258 16.4531H28.1168V17.5332H26.3258V21.7715H25.027V12.8984H26.3258V16.4531ZM22.7164 15.0039H18.5328V18.5723H18.8199C19.9547 18.5723 20.8867 18.5449 21.6158 18.4902C22.3495 18.4355 23.0764 18.3353 23.7965 18.1895L23.9469 19.2422C23.1402 19.4017 22.3222 19.5111 21.4928 19.5703C20.6633 19.625 19.5719 19.6523 18.2184 19.6523H17.2477V13.9512H22.7164V15.0039ZM26.8453 24.9023H18.5602V20.8555H19.859V23.8496H26.8453V24.9023ZM31.8427 13.8281C32.3941 13.8281 32.8908 13.9785 33.3329 14.2793C33.7749 14.5755 34.1327 15.0016 34.4061 15.5576C34.6841 16.109 34.855 16.7585 34.9188 17.5059H37.4481V12.9121H38.7333V25.1895H37.4481V18.5586H34.9325C34.8869 19.3424 34.7274 20.026 34.454 20.6094C34.1805 21.1927 33.8182 21.6416 33.3671 21.9561C32.9159 22.2705 32.4078 22.4277 31.8427 22.4277C31.232 22.4277 30.6919 22.2523 30.2225 21.9014C29.7531 21.5459 29.3863 21.0446 29.122 20.3975C28.8622 19.7458 28.7346 18.987 28.7391 18.1211C28.7346 17.2598 28.8622 16.5055 29.122 15.8584C29.3863 15.2067 29.7531 14.7054 30.2225 14.3545C30.6965 14.0036 31.2365 13.8281 31.8427 13.8281ZM31.8427 14.9902C31.4735 14.9902 31.1477 15.1178 30.8651 15.373C30.5826 15.6283 30.3615 15.9928 30.202 16.4668C30.0471 16.9362 29.9696 17.4876 29.9696 18.1211C29.9696 18.7591 30.0471 19.3151 30.202 19.7891C30.3615 20.263 30.5826 20.6276 30.8651 20.8828C31.1477 21.138 31.4735 21.2656 31.8427 21.2656C32.2118 21.2656 32.5376 21.138 32.8202 20.8828C33.1027 20.6276 33.3215 20.263 33.4764 19.7891C33.636 19.3151 33.7157 18.7591 33.7157 18.1211C33.7157 17.4876 33.636 16.9362 33.4764 16.4668C33.3215 15.9928 33.1027 15.6283 32.8202 15.373C32.5376 15.1178 32.2118 14.9902 31.8427 14.9902ZM51.5373 19.5293H40.3263V18.5312H51.5373V19.5293ZM50.1564 23.084H42.965V24.0957H50.5392V25.0117H41.6662V22.2227H48.8713V21.3203H41.6525V20.3906H50.1564V23.084ZM50.1291 15.8789H43.047V16.8086H50.3341V17.7246H41.7619V15.0176H48.8302V14.1426H41.7345V13.2266H50.1291V15.8789ZM65.0593 17.6426H66.7409V18.7363H65.0593V25.1621H63.7605V12.8848H65.0593V17.6426ZM58.7702 15.2363H56.9245V20.9238C57.599 20.901 58.2507 20.8236 58.8796 20.6914L58.989 21.7715C58.4877 21.8717 58.0183 21.9378 57.5808 21.9697C57.1478 22.0016 56.683 22.0176 56.1863 22.0176H55.6257V14.1699H58.7702V15.2363ZM62.7214 15.2363H60.7253V20.9307C61.1947 20.9215 61.6094 20.8988 61.9695 20.8623C62.3295 20.8213 62.6895 20.7552 63.0495 20.6641L63.1589 21.7441C62.6986 21.8581 62.2497 21.9333 61.8122 21.9697C61.3747 22.0016 60.7891 22.0176 60.0554 22.0176H59.4538V14.1699H62.7214V15.2363ZM76.6602 17.6973H78.6289V18.791H76.6602V25.1895H75.375V12.9121H76.6602V17.6973ZM73.2012 18.5176H68.9082V21.1699C70.043 21.1654 71.0228 21.1357 71.8477 21.0811C72.6771 21.0218 73.5156 20.9147 74.3633 20.7598L74.4863 21.8125C73.5794 21.9811 72.6839 22.0973 71.7998 22.1611C70.9202 22.2204 69.8607 22.2546 68.6211 22.2637H67.623V17.4648H71.916V15.0723H67.5957V14.0195H73.2012V18.5176ZM84.9934 15.9883H78.9095V14.9355H81.3157V13.2676H82.6009V14.9355H84.9934V15.9883ZM81.9583 16.7266C82.4733 16.7266 82.9313 16.8473 83.3323 17.0889C83.7333 17.3258 84.0478 17.6585 84.2757 18.0869C84.5035 18.5107 84.6197 18.9961 84.6243 19.543C84.6197 20.0944 84.5035 20.5866 84.2757 21.0195C84.0478 21.4479 83.7333 21.7829 83.3323 22.0244C82.9313 22.266 82.4733 22.3867 81.9583 22.3867C81.4524 22.3867 80.9967 22.266 80.5911 22.0244C80.1855 21.7829 79.8688 21.4456 79.6409 21.0127C79.413 20.5798 79.3014 20.0898 79.3059 19.543C79.3014 19.0007 79.413 18.5153 79.6409 18.0869C79.8688 17.6585 80.1855 17.3258 80.5911 17.0889C80.9967 16.8473 81.4524 16.7266 81.9583 16.7266ZM81.9583 17.8066C81.6666 17.8066 81.4069 17.8818 81.179 18.0322C80.9511 18.1781 80.7734 18.3831 80.6458 18.6475C80.5182 18.9118 80.4544 19.2103 80.4544 19.543C80.4544 19.8848 80.5182 20.1878 80.6458 20.4521C80.7734 20.7119 80.9511 20.9147 81.179 21.0605C81.4069 21.2064 81.6666 21.2793 81.9583 21.2793C82.2499 21.2793 82.5097 21.2064 82.7376 21.0605C82.97 20.9147 83.15 20.7119 83.2776 20.4521C83.4098 20.1878 83.4759 19.8848 83.4759 19.543C83.4759 19.2103 83.4098 18.9118 83.2776 18.6475C83.15 18.3831 82.97 18.1781 82.7376 18.0322C82.5052 17.8818 82.2454 17.8066 81.9583 17.8066ZM89.4231 25.1621H88.1927V19.0781H86.7845V24.5879H85.554V13.1855H86.7845V18.0117H88.1927V12.9121H89.4231V25.1621ZM93.5045 14.1699H99.1783V13.1035H100.477V17.1641H96.9498V18.2305H101.926V19.2695H90.7564V18.2305H95.6783V17.1641H92.2193V13.1035H93.5045V14.1699ZM99.1783 16.1797V15.127H93.5045V16.1797H99.1783ZM100.518 23.0156H93.3814V24.041H100.86V25.0391H92.1099V22.0859H99.233V21.1289H92.0963V20.1582H100.518V23.0156ZM112.31 17.8887H114.088V18.9551H112.31V25.1621H111.012V12.9121H112.31V17.8887ZM106.267 14.2246C106.267 15.3275 106.185 16.3483 106.021 17.2871C105.862 18.2259 105.577 19.1305 105.167 20.001C104.761 20.8714 104.203 21.6849 103.492 22.4414L102.467 21.7168C103.323 20.8281 103.948 19.862 104.34 18.8184C104.736 17.7702 104.969 16.5944 105.037 15.291H102.904V14.2246H106.267ZM109.644 14.2246C109.644 15.4049 109.576 16.5033 109.439 17.5195C109.303 18.5312 109.041 19.5293 108.653 20.5137C108.266 21.498 107.717 22.4095 107.006 23.248L105.967 22.5371C106.819 21.5436 107.427 20.4499 107.792 19.2559C108.161 18.0618 108.373 16.7402 108.428 15.291H106.664V14.2246H109.644ZM125.607 23.6309H114.396V22.5508H117.075V19.3516C116.565 19.069 116.168 18.7113 115.886 18.2783C115.603 17.8454 115.462 17.36 115.462 16.8223C115.462 16.1888 115.653 15.6305 116.036 15.1475C116.424 14.6644 116.959 14.2907 117.643 14.0264C118.326 13.7575 119.103 13.623 119.974 13.623C120.849 13.623 121.628 13.7575 122.312 14.0264C123 14.2907 123.535 14.6644 123.918 15.1475C124.305 15.6305 124.499 16.1888 124.499 16.8223C124.499 17.3555 124.362 17.8363 124.089 18.2646C123.816 18.6885 123.428 19.0417 122.927 19.3242V22.5508H125.607V23.6309ZM119.974 14.6621C119.336 14.6621 118.771 14.751 118.278 14.9287C117.786 15.1019 117.403 15.3525 117.13 15.6807C116.857 16.0042 116.72 16.3848 116.72 16.8223C116.72 17.2552 116.857 17.6357 117.13 17.9639C117.403 18.292 117.786 18.5472 118.278 18.7295C118.771 18.9072 119.336 18.9961 119.974 18.9961C120.607 18.9961 121.17 18.9072 121.662 18.7295C122.159 18.5472 122.546 18.292 122.824 17.9639C123.102 17.6357 123.241 17.2552 123.241 16.8223C123.241 16.3893 123.102 16.0088 122.824 15.6807C122.551 15.3525 122.166 15.1019 121.669 14.9287C121.177 14.751 120.612 14.6621 119.974 14.6621ZM121.614 22.5508V19.8232C121.118 19.9463 120.571 20.0078 119.974 20.0078C119.4 20.0078 118.862 19.9486 118.36 19.8301V22.5508H121.614ZM128.225 21.0605C128.23 20.4863 128.287 20.0215 128.396 19.666C128.51 19.306 128.667 19.0189 128.868 18.8047C129.068 18.5859 129.337 18.3717 129.674 18.1621C130.349 17.7428 130.686 17.2188 130.686 16.5898C130.686 16.3118 130.62 16.068 130.488 15.8584C130.36 15.6442 130.182 15.4801 129.954 15.3662C129.731 15.2523 129.483 15.1953 129.209 15.1953C128.954 15.1953 128.715 15.25 128.492 15.3594C128.268 15.4642 128.084 15.626 127.938 15.8447C127.797 16.0635 127.715 16.3346 127.692 16.6582H126.215C126.233 16.0977 126.375 15.6146 126.639 15.209C126.908 14.7988 127.266 14.4889 127.712 14.2793C128.159 14.0697 128.658 13.9648 129.209 13.9648C129.793 13.9648 130.308 14.0765 130.754 14.2998C131.205 14.5186 131.554 14.8262 131.8 15.2227C132.051 15.6191 132.176 16.0749 132.176 16.5898C132.176 17.1185 132.058 17.5765 131.821 17.9639C131.584 18.3467 131.237 18.6771 130.782 18.9551C130.499 19.1237 130.276 19.2992 130.112 19.4814C129.952 19.6637 129.831 19.8802 129.749 20.1309C129.672 20.3815 129.629 20.6914 129.62 21.0605V21.1426H128.225V21.0605ZM128.977 24.0957C128.804 24.0957 128.64 24.0524 128.485 23.9658C128.334 23.8792 128.216 23.7607 128.129 23.6104C128.043 23.46 128.002 23.2982 128.006 23.125C128.002 22.9518 128.043 22.79 128.129 22.6396C128.216 22.4893 128.334 22.3708 128.485 22.2842C128.64 22.1976 128.804 22.1543 128.977 22.1543C129.146 22.1543 129.305 22.1976 129.455 22.2842C129.606 22.3708 129.724 22.4893 129.811 22.6396C129.902 22.79 129.948 22.9518 129.948 23.125C129.948 23.2982 129.902 23.46 129.811 23.6104C129.724 23.7607 129.606 23.8792 129.455 23.9658C129.305 24.0524 129.146 24.0957 128.977 24.0957Z" fill="#FF9200"/>
</g>
<path d="M74.5 44L70 36L79 36L74.5 44Z" fill="#FEE6C6"/>
<defs>
<filter id="filter0_d_785_4840" x="0" y="0" width="149" height="42" filterUnits="userSpaceOnUse" color-interpolation-filters="sRGB">
<feFlood flood-opacity="0" result="BackgroundImageFix"/>
<feColorMatrix in="SourceAlpha" type="matrix" values="0 0 0 0 0 0 0 0 0 0 0 0 0 0 0 0 0 0 127 0" result="hardAlpha"/>
<feOffset dy="2"/>
<feGaussianBlur stdDeviation="2"/>
<feComposite in2="hardAlpha" operator="out"/>
<feColorMatrix type="matrix" values="0 0 0 0 1 0 0 0 0 0.573222 0 0 0 0 0 0 0 0 0.1 0"/>
<feBlend mode="normal" in2="BackgroundImageFix" result="effect1_dropShadow_785_4840"/>
<feBlend mode="normal" in="SourceGraphic" in2="effect1_dropShadow_785_4840" result="shape"/>
</filter>
</defs>
</svg>
