<svg width="32" height="32" viewBox="0 0 32 32" fill="none" xmlns="http://www.w3.org/2000/svg">
<path d="M12 0.5H20C26.3513 0.5 31.5 5.64873 31.5 12V20C31.5 26.3513 26.3513 31.5 20 31.5H12C5.64873 31.5 0.5 26.3513 0.5 20V12C0.5 5.64873 5.64873 0.5 12 0.5Z" fill="white"/>
<path d="M12 0.5H20C26.3513 0.5 31.5 5.64873 31.5 12V20C31.5 26.3513 26.3513 31.5 20 31.5H12C5.64873 31.5 0.5 26.3513 0.5 20V12C0.5 5.64873 5.64873 0.5 12 0.5Z" stroke="#ECEEF0"/>
<mask id="mask0_743_2992" style="mask-type:alpha" maskUnits="userSpaceOnUse" x="4" y="4" width="24" height="24">
<rect x="4" y="4" width="24" height="24" fill="#D9D9D9"/>
</mask>
<g mask="url(#mask0_743_2992)">
<path d="M16 17.0538L10.927 22.127C10.7885 22.2653 10.6144 22.3362 10.4048 22.3395C10.1953 22.3427 10.018 22.2718 9.87301 22.127C9.72818 21.982 9.65576 21.8063 9.65576 21.6C9.65576 21.3937 9.72818 21.218 9.87301 21.073L14.9463 16L9.87301 10.927C9.73468 10.7885 9.66385 10.6144 9.66051 10.4048C9.65735 10.1953 9.72818 10.018 9.87301 9.87301C10.018 9.72818 10.1937 9.65576 10.4 9.65576C10.6063 9.65576 10.782 9.72818 10.927 9.87301L16 14.9463L21.073 9.87301C21.2115 9.73468 21.3856 9.66385 21.5953 9.66051C21.8048 9.65735 21.982 9.72818 22.127 9.87301C22.2718 10.018 22.3443 10.1937 22.3443 10.4C22.3443 10.6063 22.2718 10.782 22.127 10.927L17.0538 16L22.127 21.073C22.2653 21.2115 22.3362 21.3856 22.3395 21.5953C22.3427 21.8048 22.2718 21.982 22.127 22.127C21.982 22.2718 21.8063 22.3443 21.6 22.3443C21.3937 22.3443 21.218 22.2718 21.073 22.127L16 17.0538Z" fill="#56585A"/>
</g>
</svg>
