<svg width="20" height="20" viewBox="0 0 20 20" fill="none" xmlns="http://www.w3.org/2000/svg">
<mask id="mask0_796_959" style="mask-type:alpha" maskUnits="userSpaceOnUse" x="0" y="0" width="20" height="20">
<rect width="20" height="20" fill="#D9D9D9"/>
</mask>
<g mask="url(#mask0_796_959)">
<path d="M4.42296 17.0827C4.00199 17.0827 3.64567 16.9369 3.354 16.6452C3.06234 16.3535 2.9165 15.9972 2.9165 15.5762V4.42247C2.9165 4.0015 3.06234 3.64518 3.354 3.35352C3.64567 3.06185 4.00199 2.91602 4.42296 2.91602H9.38296C9.56019 2.91602 9.70866 2.97588 9.82838 3.0956C9.94796 3.21518 10.0078 3.36365 10.0078 3.54102C10.0078 3.71838 9.94796 3.86685 9.82838 3.98643C9.70866 4.10615 9.56019 4.16602 9.38296 4.16602H4.42296C4.3588 4.16602 4.30005 4.19275 4.24671 4.24622C4.19324 4.29956 4.1665 4.35831 4.1665 4.42247V15.5762C4.1665 15.6404 4.19324 15.6991 4.24671 15.7525C4.30005 15.8059 4.3588 15.8327 4.42296 15.8327H9.38296C9.56019 15.8327 9.70866 15.8925 9.82838 16.0123C9.94796 16.1319 10.0078 16.2803 10.0078 16.4577C10.0078 16.635 9.94796 16.7835 9.82838 16.9031C9.70866 17.0228 9.56019 17.0827 9.38296 17.0827H4.42296ZM14.6809 10.6244H8.20505C8.02769 10.6244 7.87914 10.5645 7.75942 10.4448C7.63984 10.3252 7.58005 10.1767 7.58005 9.99935C7.58005 9.82199 7.63984 9.67352 7.75942 9.55393C7.87914 9.43421 8.02769 9.37435 8.20505 9.37435H14.6809L13.0784 7.77185C12.963 7.65643 12.9039 7.51567 12.9013 7.34956C12.8987 7.18345 12.9577 7.03574 13.0784 6.90643C13.1991 6.77713 13.3455 6.71032 13.5175 6.70602C13.6895 6.70185 13.8401 6.76435 13.9694 6.89352L16.548 9.47206C16.6985 9.62275 16.7738 9.79852 16.7738 9.99935C16.7738 10.2002 16.6985 10.3759 16.548 10.5266L13.9694 13.1052C13.8455 13.2291 13.6984 13.2902 13.528 13.2885C13.3575 13.287 13.2077 13.2216 13.0784 13.0923C12.9577 12.963 12.8995 12.8145 12.9038 12.6469C12.908 12.4791 12.9705 12.3348 13.0913 12.2141L14.6809 10.6244Z" fill="#1A75FF"/>
</g>
</svg>
