<svg width="179" height="46" viewBox="0 0 179 46" fill="none" xmlns="http://www.w3.org/2000/svg">
<g filter="url(#filter0_d_740_3134)">
<path d="M4 10C4 5.58172 7.58172 2 12 2H167C171.418 2 175 5.58172 175 10V30C175 34.4183 171.418 38 167 38H12C7.58172 38 4 34.4183 4 30V10Z" fill="#1A75FF" shape-rendering="crispEdges"/>
<path d="M23.7794 23.8125H17.2325V14.7188H23.7794V23.8125ZM18.6856 22.6094H22.3106V15.8906H18.6856V22.6094ZM27.6075 18.8125H29.8575V20.0625H27.6075V27.3281H26.1231V13.3281H27.6075V18.8125ZM41.8031 27.3594H40.3187V13.3281H41.8031V27.3594ZM34.3187 14.375C35.0115 14.375 35.6312 14.5781 36.1781 14.9844C36.725 15.3854 37.1521 15.9583 37.4594 16.7031C37.7719 17.4427 37.9281 18.3021 37.9281 19.2812C37.9281 20.2656 37.7719 21.1302 37.4594 21.875C37.1521 22.6198 36.725 23.1953 36.1781 23.6016C35.6312 24.0026 35.0115 24.2031 34.3187 24.2031C33.6156 24.2031 32.9906 24.0026 32.4437 23.6016C31.8969 23.1953 31.4672 22.6224 31.1547 21.8828C30.8474 21.138 30.6937 20.2708 30.6937 19.2812C30.6937 18.2969 30.8474 17.4349 31.1547 16.6953C31.4672 15.9505 31.8969 15.3776 32.4437 14.9766C32.9906 14.5755 33.6156 14.375 34.3187 14.375ZM34.3187 15.7031C33.8865 15.7031 33.5036 15.849 33.1703 16.1406C32.8422 16.4323 32.587 16.849 32.4047 17.3906C32.2224 17.9271 32.1312 18.5573 32.1312 19.2812C32.1312 20.0104 32.2224 20.6458 32.4047 21.1875C32.587 21.7292 32.8422 22.1458 33.1703 22.4375C33.5036 22.7292 33.8865 22.875 34.3187 22.875C34.7458 22.875 35.1234 22.7292 35.4516 22.4375C35.7797 22.1458 36.0349 21.7292 36.2172 21.1875C36.3995 20.6458 36.4906 20.0104 36.4906 19.2812C36.4906 18.5573 36.3995 17.9271 36.2172 17.3906C36.0349 16.849 35.7797 16.4323 35.4516 16.1406C35.1234 15.849 34.7458 15.7031 34.3187 15.7031ZM54.9831 16.3906C54.9831 17.2917 54.9727 18.0495 54.9519 18.6641C54.931 19.2786 54.8764 19.974 54.7878 20.75C54.6993 21.5208 54.5612 22.3594 54.3737 23.2656L52.905 23.125C53.1758 21.9635 53.3529 20.8151 53.4362 19.6797L45.03 20.125L44.8425 18.9062L53.5066 18.5781C53.517 18.2812 53.5248 17.9896 53.53 17.7031C53.5352 17.4115 53.5404 17.1198 53.5456 16.8281V16.3906V15.9062H45.2331V14.6875H54.9831V16.3906ZM56.4831 25.4531H43.7175V24.2344H56.4831V25.4531ZM70.0225 20.8906H57.21V19.75H70.0225V20.8906ZM68.4444 24.9531H60.2256V26.1094H68.8819V27.1562H58.7412V23.9688H66.9756V22.9375H58.7256V21.875H68.4444V24.9531ZM68.4131 16.7188H60.3194V17.7812H68.6475V18.8281H58.8506V15.7344H66.9287V14.7344H58.8194V13.6875H68.4131V16.7188ZM85.6169 17.7188H76.0075V13.5312H77.4606V16.5156H85.6169V17.7188ZM87.1169 20.0156H81.3981V21.3594H85.5075V24.7031H77.3825V26.0312H85.9919V27.1875H75.8981V23.6562H84.0387V22.5H75.8669V21.3594H79.9606V20.0156H74.3044V18.7969H87.1169V20.0156ZM99.4844 27.3594H98.0156V19.8281H95.4531V18.5938H98.0156V13.3281H99.4844V27.3594ZM94.625 19.5938H89.8281V22.7812C91.0469 22.776 92.1042 22.7448 93 22.6875C93.901 22.625 94.8125 22.5104 95.7344 22.3438L95.8594 23.5625C94.8802 23.7396 93.9062 23.8594 92.9375 23.9219C91.974 23.9844 90.8125 24.0208 89.4531 24.0312H88.3438V18.3906H93.1875V15.7969H88.3125V14.5938H94.625V19.5938ZM116.938 27.3281H115.516V20.0938H113.704V26.6094H112.344V13.6094H113.704V18.875H115.516V13.3281H116.938V27.3281ZM110.641 16.2188H106.876V22.7031C107.792 22.6927 108.594 22.6615 109.282 22.6094C109.975 22.5573 110.678 22.4635 111.391 22.3281L111.501 23.5469C110.714 23.7083 109.938 23.8177 109.173 23.875C108.407 23.9271 107.459 23.9583 106.329 23.9688H105.391V15.0156H110.641V16.2188ZM129.399 19.1875H131.509V20.4375H129.399V27.3281H127.915V13.3281H129.399V19.1875ZM118.259 23.5156C119.847 23.5156 121.087 23.5026 121.978 23.4766V22.0547C121.451 21.9818 120.991 21.8307 120.595 21.6016C120.204 21.3724 119.902 21.0807 119.688 20.7266C119.48 20.3672 119.379 19.9635 119.384 19.5156C119.379 18.9948 119.514 18.5365 119.79 18.1406C120.071 17.7448 120.464 17.4375 120.97 17.2188C121.48 17 122.066 16.8906 122.728 16.8906C123.384 16.8906 123.964 17 124.47 17.2188C124.98 17.4375 125.379 17.7448 125.665 18.1406C125.951 18.5365 126.097 18.9948 126.103 19.5156C126.097 19.9635 125.985 20.3672 125.767 20.7266C125.548 21.0807 125.241 21.375 124.845 21.6094C124.449 21.8385 123.988 21.9896 123.462 22.0625V23.4141C124.806 23.3568 126.024 23.25 127.118 23.0938L127.212 24.1875C125.873 24.4271 124.509 24.5807 123.118 24.6484C121.733 24.7161 120.191 24.75 118.493 24.75L118.259 23.5156ZM126.915 16.1719H118.524V14.9844H121.978V13.3594H123.462V14.9844H126.915V16.1719ZM122.728 18.0469C122.342 18.0469 122.001 18.1068 121.704 18.2266C121.407 18.3464 121.178 18.5182 121.017 18.7422C120.855 18.9661 120.774 19.224 120.774 19.5156C120.774 19.9583 120.951 20.3099 121.306 20.5703C121.665 20.8255 122.139 20.9531 122.728 20.9531C123.316 20.9531 123.787 20.8255 124.142 20.5703C124.501 20.3099 124.681 19.9583 124.681 19.5156C124.681 19.224 124.6 18.9661 124.438 18.7422C124.277 18.5182 124.048 18.3464 123.751 18.2266C123.454 18.1068 123.113 18.0469 122.728 18.0469ZM138.861 16.8438H131.908V15.6406H134.658V13.7344H136.126V15.6406H138.861V16.8438ZM135.392 17.6875C135.98 17.6875 136.504 17.8255 136.962 18.1016C137.421 18.3724 137.78 18.7526 138.04 19.2422C138.301 19.7266 138.434 20.2812 138.439 20.9062C138.434 21.5365 138.301 22.099 138.04 22.5938C137.78 23.0833 137.421 23.4661 136.962 23.7422C136.504 24.0182 135.98 24.1562 135.392 24.1562C134.814 24.1562 134.293 24.0182 133.829 23.7422C133.366 23.4661 133.004 23.0807 132.743 22.5859C132.483 22.0911 132.355 21.5312 132.361 20.9062C132.355 20.2865 132.483 19.7318 132.743 19.2422C133.004 18.7526 133.366 18.3724 133.829 18.1016C134.293 17.8255 134.814 17.6875 135.392 17.6875ZM135.392 18.9219C135.059 18.9219 134.762 19.0078 134.501 19.1797C134.241 19.3464 134.038 19.5807 133.892 19.8828C133.746 20.1849 133.673 20.526 133.673 20.9062C133.673 21.2969 133.746 21.6432 133.892 21.9453C134.038 22.2422 134.241 22.474 134.501 22.6406C134.762 22.8073 135.059 22.8906 135.392 22.8906C135.725 22.8906 136.022 22.8073 136.283 22.6406C136.548 22.474 136.754 22.2422 136.9 21.9453C137.051 21.6432 137.126 21.2969 137.126 20.9062C137.126 20.526 137.051 20.1849 136.9 19.8828C136.754 19.5807 136.548 19.3464 136.283 19.1797C136.017 19.0078 135.72 18.9219 135.392 18.9219ZM143.923 27.3281H142.517V20.375H140.908V26.6719H139.501V13.6406H140.908V19.1562H142.517V13.3281H143.923V27.3281ZM158.259 25.5781H145.447V24.3438H148.509V20.6875C147.926 20.3646 147.473 19.9557 147.15 19.4609C146.827 18.9661 146.666 18.4115 146.666 17.7969C146.666 17.0729 146.884 16.4349 147.322 15.8828C147.765 15.3307 148.377 14.9036 149.158 14.6016C149.939 14.2943 150.827 14.1406 151.822 14.1406C152.822 14.1406 153.712 14.2943 154.494 14.6016C155.28 14.9036 155.892 15.3307 156.33 15.8828C156.772 16.4349 156.994 17.0729 156.994 17.7969C156.994 18.4062 156.837 18.9557 156.525 19.4453C156.212 19.9297 155.77 20.3333 155.197 20.6562V24.3438H158.259V25.5781ZM151.822 15.3281C151.093 15.3281 150.447 15.4297 149.884 15.6328C149.322 15.8307 148.884 16.1172 148.572 16.4922C148.259 16.862 148.103 17.2969 148.103 17.7969C148.103 18.2917 148.259 18.7266 148.572 19.1016C148.884 19.4766 149.322 19.7682 149.884 19.9766C150.447 20.1797 151.093 20.2812 151.822 20.2812C152.546 20.2812 153.189 20.1797 153.752 19.9766C154.319 19.7682 154.762 19.4766 155.08 19.1016C155.397 18.7266 155.556 18.2917 155.556 17.7969C155.556 17.3021 155.397 16.8672 155.08 16.4922C154.767 16.1172 154.327 15.8307 153.759 15.6328C153.197 15.4297 152.551 15.3281 151.822 15.3281ZM153.697 24.3438V21.2266C153.129 21.3672 152.504 21.4375 151.822 21.4375C151.166 21.4375 150.551 21.3698 149.978 21.2344V24.3438H153.697ZM161.393 22.7344H159.846L159.705 14.6875H161.533L161.393 22.7344ZM160.627 26.1094C160.429 26.1094 160.241 26.0599 160.064 25.9609C159.893 25.862 159.757 25.7266 159.658 25.5547C159.559 25.3828 159.512 25.1979 159.518 25C159.512 24.8021 159.559 24.6172 159.658 24.4453C159.757 24.2734 159.893 24.138 160.064 24.0391C160.241 23.9401 160.429 23.8906 160.627 23.8906C160.82 23.8906 161.002 23.9401 161.174 24.0391C161.346 24.138 161.481 24.2734 161.58 24.4453C161.684 24.6172 161.736 24.8021 161.736 25C161.736 25.1979 161.684 25.3828 161.58 25.5547C161.481 25.7266 161.346 25.862 161.174 25.9609C161.002 26.0599 160.82 26.1094 160.627 26.1094Z" fill="white"/>
</g>
<path d="M89.5 46L85 38L94 38L89.5 46Z" fill="#1A75FF"/>
<defs>
<filter id="filter0_d_740_3134" x="0" y="0" width="179" height="44" filterUnits="userSpaceOnUse" color-interpolation-filters="sRGB">
<feFlood flood-opacity="0" result="BackgroundImageFix"/>
<feColorMatrix in="SourceAlpha" type="matrix" values="0 0 0 0 0 0 0 0 0 0 0 0 0 0 0 0 0 0 127 0" result="hardAlpha"/>
<feOffset dy="2"/>
<feGaussianBlur stdDeviation="2"/>
<feComposite in2="hardAlpha" operator="out"/>
<feColorMatrix type="matrix" values="0 0 0 0 0.1 0 0 0 0 0.46 0 0 0 0 1 0 0 0 0.45 0"/>
<feBlend mode="normal" in2="BackgroundImageFix" result="effect1_dropShadow_740_3134"/>
<feBlend mode="normal" in="SourceGraphic" in2="effect1_dropShadow_740_3134" result="shape"/>
</filter>
</defs>
</svg>
