<svg width="58" height="58" viewBox="0 0 82 82" fill="none" xmlns="http://www.w3.org/2000/svg">
<g filter="url(#filter0_d_644_3688)">
<path d="M12 41C12 24.9837 24.9837 12 41 12C57.0163 12 70 24.9837 70 41C70 57.0163 57.0163 70 41 70C24.9837 70 12 57.0163 12 41Z" fill="#1A75FF" shape-rendering="crispEdges"/>
<path d="M50.2737 39.8863L50.2677 39.8836L34.2507 33.0703C34.116 33.0124 33.9694 32.9898 33.8241 33.0043C33.6787 33.0188 33.5391 33.07 33.4178 33.1533C33.2896 33.2395 33.1843 33.357 33.1114 33.4952C33.0384 33.6335 33.0002 33.7881 33 33.9453V38.3027C33.0001 38.5176 33.0732 38.7257 33.2069 38.8912C33.3405 39.0567 33.5262 39.1692 33.7321 39.2093L42.4678 40.8659C42.5021 40.8726 42.5331 40.8913 42.5554 40.9189C42.5776 40.9465 42.5898 40.9812 42.5898 41.0171C42.5898 41.0529 42.5776 41.0876 42.5554 41.1152C42.5331 41.1428 42.5021 41.1615 42.4678 41.1682L33.7324 42.8248C33.5267 42.8648 33.3409 42.9772 33.2072 43.1425C33.0736 43.3078 33.0003 43.5158 33 43.7306V48.0888C32.9999 48.2389 33.0361 48.3867 33.1055 48.5189C33.1748 48.651 33.275 48.7635 33.3972 48.8461C33.5441 48.9463 33.7165 48.9998 33.893 49C34.0156 48.9999 34.137 48.9747 34.25 48.9258L50.2666 42.1513L50.2737 42.1479C50.4893 42.0528 50.673 41.8951 50.8021 41.6941C50.9312 41.4931 51 41.2577 51 41.0171C51 40.7764 50.9312 40.541 50.8021 40.34C50.673 40.139 50.4893 39.9813 50.2737 39.8863Z" fill="white"/>
</g>
<defs>
<filter id="filter0_d_644_3688" x="0" y="0" width="82" height="82" filterUnits="userSpaceOnUse" color-interpolation-filters="sRGB">
<feFlood flood-opacity="0" result="BackgroundImageFix"/>
<feColorMatrix in="SourceAlpha" type="matrix" values="0 0 0 0 0 0 0 0 0 0 0 0 0 0 0 0 0 0 127 0" result="hardAlpha"/>
<feOffset/>
<feGaussianBlur stdDeviation="6"/>
<feComposite in2="hardAlpha" operator="out"/>
<feColorMatrix type="matrix" values="0 0 0 0 0.435294 0 0 0 0 0.443137 0 0 0 0 0.45098 0 0 0 0.1 0"/>
<feBlend mode="normal" in2="BackgroundImageFix" result="effect1_dropShadow_644_3688"/>
<feBlend mode="normal" in="SourceGraphic" in2="effect1_dropShadow_644_3688" result="shape"/>
</filter>
</defs>
</svg>
