<svg width="137" height="44" viewBox="0 0 137 44" fill="none" xmlns="http://www.w3.org/2000/svg">
<g filter="url(#filter0_d_785_6337)">
<path d="M4 10C4 5.58172 7.58172 2 12 2H125C129.418 2 133 5.58172 133 10V28C133 32.4183 129.418 36 125 36H12C7.58173 36 4 32.4183 4 28V10Z" fill="#FEE6C6" shape-rendering="crispEdges"/>
<path d="M27.8078 20.1582H22.9407V22.5371H21.6555V20.1582H16.5969V19.1055H27.8078V20.1582ZM26.3586 17.834H18.0325V13.4863H26.3586V17.834ZM19.3039 16.8086H25.0735V14.5117H19.3039V16.8086ZM26.5637 24.9023H17.9914V21.375H19.2903V23.8496H26.5637V24.9023ZM32.7095 15.168C32.7095 15.6875 32.8257 16.1842 33.0581 16.6582C33.2905 17.1276 33.6278 17.5446 34.0698 17.9092C34.5119 18.2692 35.0383 18.5449 35.6489 18.7363L35.0337 19.748C34.3456 19.5293 33.7486 19.2012 33.2427 18.7637C32.7414 18.3262 32.354 17.8112 32.0806 17.2188C31.8117 17.8978 31.4129 18.4902 30.8843 18.9961C30.3556 19.4974 29.729 19.8757 29.0044 20.1309L28.3345 19.0918C28.9588 18.8867 29.5012 18.5859 29.9614 18.1895C30.4263 17.7884 30.7818 17.3281 31.0279 16.8086C31.2785 16.2891 31.4061 15.7467 31.4107 15.1816V14.8398H28.7173V13.7871H35.3482V14.8398H32.7095V15.168ZM38.0552 15.9473H39.8325V17.0137H38.0552V20.2676H36.7564V12.9121H38.0552V15.9473ZM34.104 20.5684C34.9426 20.5684 35.6672 20.6595 36.2779 20.8418C36.8885 21.0195 37.3556 21.2793 37.6792 21.6211C38.0028 21.9583 38.1646 22.3639 38.1646 22.8379C38.1646 23.3164 38.0005 23.7288 37.6724 24.0752C37.3488 24.4215 36.8817 24.6859 36.271 24.8682C35.6649 25.0505 34.9426 25.1393 34.104 25.1348C33.2564 25.1393 32.5226 25.0505 31.9029 24.8682C31.2876 24.6859 30.8137 24.4215 30.481 24.0752C30.1529 23.7288 29.9888 23.3164 29.9888 22.8379C29.9888 22.3639 30.1529 21.9583 30.481 21.6211C30.8137 21.2793 31.2876 21.0195 31.9029 20.8418C32.5226 20.6595 33.2564 20.5684 34.104 20.5684ZM34.104 21.5938C33.2108 21.5938 32.5158 21.7031 32.0191 21.9219C31.5269 22.1361 31.2831 22.4414 31.2876 22.8379C31.2831 23.2435 31.5269 23.5579 32.0191 23.7812C32.5158 24 33.2108 24.1094 34.104 24.1094C34.9881 24.1094 35.674 24 36.1616 23.7812C36.6493 23.5625 36.8931 23.248 36.8931 22.8379C36.8931 22.4414 36.6493 22.1361 36.1616 21.9219C35.674 21.7031 34.9881 21.5938 34.104 21.5938ZM45.8279 13.1172C46.7485 13.1172 47.5346 13.1992 48.1863 13.3633C48.8426 13.5228 49.3416 13.7598 49.6834 14.0742C50.0298 14.3887 50.2029 14.7715 50.2029 15.2227C50.2029 15.6738 50.0298 16.0589 49.6834 16.3779C49.3416 16.6924 48.8426 16.9316 48.1863 17.0957C47.5346 17.2598 46.7485 17.3418 45.8279 17.3418C44.9074 17.3418 44.1189 17.2598 43.4627 17.0957C42.811 16.9316 42.312 16.6924 41.9656 16.3779C41.6238 16.0589 41.4529 15.6738 41.4529 15.2227C41.4529 14.7715 41.6238 14.3887 41.9656 14.0742C42.312 13.7598 42.811 13.5228 43.4627 13.3633C44.1189 13.1992 44.9074 13.1172 45.8279 13.1172ZM45.8279 14.0742C44.8527 14.0742 44.103 14.1745 43.5789 14.375C43.0548 14.5755 42.7973 14.8581 42.8064 15.2227C42.8019 15.5964 43.0571 15.8812 43.5721 16.0771C44.0916 16.2731 44.8436 16.3711 45.8279 16.3711C46.8077 16.3711 47.5574 16.2731 48.077 16.0771C48.601 15.8812 48.8631 15.5964 48.8631 15.2227C48.8631 14.8581 48.5988 14.5755 48.0701 14.375C47.546 14.1745 46.7986 14.0742 45.8279 14.0742ZM51.4197 19.1328H40.2498V18.0938H51.4197V19.1328ZM50.0115 22.9473H42.8748V24.041H50.3533V25.0391H41.6033V22.0039H48.7264V21.0469H41.5896V20.0762H50.0115V22.9473ZM64.8324 15.4688H66.6097V16.5488H64.8324V19.1055H63.5336V12.9121H64.8324V15.4688ZM61.4144 18.5312H55.6859V13.5684H61.4144V18.5312ZM56.9574 17.4922H60.1429V14.6074H56.9574V17.4922ZM64.8324 22.7695H58.2152V23.9727H65.2562V25.0117H56.9437V21.7988H63.5472V20.6777H56.9164V19.666H64.8324V22.7695ZM73.0836 15.9883H66.9996V14.9355H69.4059V13.2676H70.6911V14.9355H73.0836V15.9883ZM70.0485 16.7266C70.5634 16.7266 71.0215 16.8473 71.4225 17.0889C71.8235 17.3258 72.138 17.6585 72.3659 18.0869C72.5937 18.5107 72.7099 18.9961 72.7145 19.543C72.7099 20.0944 72.5937 20.5866 72.3659 21.0195C72.138 21.4479 71.8235 21.7829 71.4225 22.0244C71.0215 22.266 70.5634 22.3867 70.0485 22.3867C69.5426 22.3867 69.0869 22.266 68.6813 22.0244C68.2757 21.7829 67.959 21.4456 67.7311 21.0127C67.5032 20.5798 67.3916 20.0898 67.3961 19.543C67.3916 19.0007 67.5032 18.5153 67.7311 18.0869C67.959 17.6585 68.2757 17.3258 68.6813 17.0889C69.0869 16.8473 69.5426 16.7266 70.0485 16.7266ZM70.0485 17.8066C69.7568 17.8066 69.497 17.8818 69.2692 18.0322C69.0413 18.1781 68.8636 18.3831 68.736 18.6475C68.6084 18.9118 68.5446 19.2103 68.5446 19.543C68.5446 19.8848 68.6084 20.1878 68.736 20.4521C68.8636 20.7119 69.0413 20.9147 69.2692 21.0605C69.497 21.2064 69.7568 21.2793 70.0485 21.2793C70.3401 21.2793 70.5999 21.2064 70.8278 21.0605C71.0602 20.9147 71.2402 20.7119 71.3678 20.4521C71.5 20.1878 71.5661 19.8848 71.5661 19.543C71.5661 19.2103 71.5 18.9118 71.3678 18.6475C71.2402 18.3831 71.0602 18.1781 70.8278 18.0322C70.5953 17.8818 70.3356 17.8066 70.0485 17.8066ZM77.5133 25.1621H76.2828V19.0781H74.8746V24.5879H73.6442V13.1855H74.8746V18.0117H76.2828V12.9121H77.5133V25.1621ZM81.5946 14.1699H87.2685V13.1035H88.5673V17.1641H85.04V18.2305H90.0165V19.2695H78.8466V18.2305H83.7685V17.1641H80.3095V13.1035H81.5946V14.1699ZM87.2685 16.1797V15.127H81.5946V16.1797H87.2685ZM88.6083 23.0156H81.4716V24.041H88.9501V25.0391H80.2001V22.0859H87.3232V21.1289H80.1864V20.1582H88.6083V23.0156ZM100.401 17.8887H102.178V18.9551H100.401V25.1621H99.1018V12.9121H100.401V17.8887ZM94.3576 14.2246C94.3576 15.3275 94.2756 16.3483 94.1115 17.2871C93.952 18.2259 93.6672 19.1305 93.257 20.001C92.8514 20.8714 92.2932 21.6849 91.5822 22.4414L90.5568 21.7168C91.4136 20.8281 92.038 19.862 92.4299 18.8184C92.8264 17.7702 93.0588 16.5944 93.1272 15.291H90.9943V14.2246H94.3576ZM97.7346 14.2246C97.7346 15.4049 97.6662 16.5033 97.5295 17.5195C97.3928 18.5312 97.1307 19.5293 96.7434 20.5137C96.356 21.498 95.8068 22.4095 95.0959 23.248L94.0568 22.5371C94.9091 21.5436 95.5175 20.4499 95.882 19.2559C96.2512 18.0618 96.4631 16.7402 96.5178 15.291H94.7541V14.2246H97.7346ZM113.697 23.6309H102.486V22.5508H105.166V19.3516C104.655 19.069 104.259 18.7113 103.976 18.2783C103.694 17.8454 103.552 17.36 103.552 16.8223C103.552 16.1888 103.744 15.6305 104.126 15.1475C104.514 14.6644 105.049 14.2907 105.733 14.0264C106.416 13.7575 107.194 13.623 108.064 13.623C108.939 13.623 109.718 13.7575 110.402 14.0264C111.09 14.2907 111.625 14.6644 112.008 15.1475C112.396 15.6305 112.589 16.1888 112.589 16.8223C112.589 17.3555 112.453 17.8363 112.179 18.2646C111.906 18.6885 111.518 19.0417 111.017 19.3242V22.5508H113.697V23.6309ZM108.064 14.6621C107.426 14.6621 106.861 14.751 106.369 14.9287C105.876 15.1019 105.494 15.3525 105.22 15.6807C104.947 16.0042 104.81 16.3848 104.81 16.8223C104.81 17.2552 104.947 17.6357 105.22 17.9639C105.494 18.292 105.876 18.5472 106.369 18.7295C106.861 18.9072 107.426 18.9961 108.064 18.9961C108.697 18.9961 109.26 18.9072 109.752 18.7295C110.249 18.5472 110.637 18.292 110.915 17.9639C111.193 17.6357 111.332 17.2552 111.332 16.8223C111.332 16.3893 111.193 16.0088 110.915 15.6807C110.641 15.3525 110.256 15.1019 109.759 14.9287C109.267 14.751 108.702 14.6621 108.064 14.6621ZM109.705 22.5508V19.8232C109.208 19.9463 108.661 20.0078 108.064 20.0078C107.49 20.0078 106.952 19.9486 106.451 19.8301V22.5508H109.705ZM116.315 21.0605C116.32 20.4863 116.377 20.0215 116.486 19.666C116.6 19.306 116.757 19.0189 116.958 18.8047C117.158 18.5859 117.427 18.3717 117.764 18.1621C118.439 17.7428 118.776 17.2188 118.776 16.5898C118.776 16.3118 118.71 16.068 118.578 15.8584C118.45 15.6442 118.273 15.4801 118.045 15.3662C117.821 15.2523 117.573 15.1953 117.3 15.1953C117.044 15.1953 116.805 15.25 116.582 15.3594C116.358 15.4642 116.174 15.626 116.028 15.8447C115.887 16.0635 115.805 16.3346 115.782 16.6582H114.305C114.324 16.0977 114.465 15.6146 114.729 15.209C114.998 14.7988 115.356 14.4889 115.803 14.2793C116.249 14.0697 116.748 13.9648 117.3 13.9648C117.883 13.9648 118.398 14.0765 118.844 14.2998C119.296 14.5186 119.644 14.8262 119.89 15.2227C120.141 15.6191 120.266 16.0749 120.266 16.5898C120.266 17.1185 120.148 17.5765 119.911 17.9639C119.674 18.3467 119.328 18.6771 118.872 18.9551C118.589 19.1237 118.366 19.2992 118.202 19.4814C118.042 19.6637 117.922 19.8802 117.84 20.1309C117.762 20.3815 117.719 20.6914 117.71 21.0605V21.1426H116.315V21.0605ZM117.067 24.0957C116.894 24.0957 116.73 24.0524 116.575 23.9658C116.425 23.8792 116.306 23.7607 116.219 23.6104C116.133 23.46 116.092 23.2982 116.096 23.125C116.092 22.9518 116.133 22.79 116.219 22.6396C116.306 22.4893 116.425 22.3708 116.575 22.2842C116.73 22.1976 116.894 22.1543 117.067 22.1543C117.236 22.1543 117.395 22.1976 117.546 22.2842C117.696 22.3708 117.815 22.4893 117.901 22.6396C117.992 22.79 118.038 22.9518 118.038 23.125C118.038 23.2982 117.992 23.46 117.901 23.6104C117.815 23.7607 117.696 23.8792 117.546 23.9658C117.395 24.0524 117.236 24.0957 117.067 24.0957Z" fill="#FF9200"/>
</g>
<path d="M68.5 44L64 36L73 36L68.5 44Z" fill="#FEE6C6"/>
<defs>
<filter id="filter0_d_785_6337" x="0" y="0" width="137" height="42" filterUnits="userSpaceOnUse" color-interpolation-filters="sRGB">
<feFlood flood-opacity="0" result="BackgroundImageFix"/>
<feColorMatrix in="SourceAlpha" type="matrix" values="0 0 0 0 0 0 0 0 0 0 0 0 0 0 0 0 0 0 127 0" result="hardAlpha"/>
<feOffset dy="2"/>
<feGaussianBlur stdDeviation="2"/>
<feComposite in2="hardAlpha" operator="out"/>
<feColorMatrix type="matrix" values="0 0 0 0 1 0 0 0 0 0.573222 0 0 0 0 0 0 0 0 0.1 0"/>
<feBlend mode="normal" in2="BackgroundImageFix" result="effect1_dropShadow_785_6337"/>
<feBlend mode="normal" in="SourceGraphic" in2="effect1_dropShadow_785_6337" result="shape"/>
</filter>
</defs>
</svg>
