<svg width="135" height="46" viewBox="0 0 135 46" fill="none" xmlns="http://www.w3.org/2000/svg">
<g filter="url(#filter0_d_671_1546)">
<path d="M4 10C4 5.58172 7.58172 2 12 2H123C127.418 2 131 5.58172 131 10V30C131 34.4183 127.418 38 123 38H12C7.58172 38 4 34.4183 4 30V10Z" fill="#1A75FF" shape-rendering="crispEdges"/>
<path d="M28.1159 21.6875H23.8816V24.4219H29.5691V25.6406H16.7566V24.4219H22.3972V21.6875H18.3659V14.4062H27.9753V15.625H19.8659V17.4219H27.6784V18.5938H19.8659V20.5H28.1159V21.6875ZM41.8584 27.3594H40.3741V13.3281H41.8584V27.3594ZM37.8584 15.8594H32.6553V22.6562C34.0876 22.651 35.2647 22.6198 36.1866 22.5625C37.1136 22.5052 38.0459 22.3906 38.9834 22.2188L39.1397 23.4531C38.1293 23.6354 37.1162 23.7604 36.1006 23.8281C35.0902 23.8906 33.8272 23.9219 32.3116 23.9219H31.1553V14.625H37.8584V15.8594ZM47.9759 14.2188C48.6895 14.2188 49.3327 14.3594 49.9056 14.6406C50.4785 14.9219 50.9265 15.3151 51.2494 15.8203C51.5775 16.3255 51.7416 16.901 51.7416 17.5469C51.7416 18.1146 51.614 18.6302 51.3587 19.0938C51.1035 19.5521 50.7468 19.9323 50.2884 20.2344C49.8353 20.5312 49.3145 20.7266 48.7259 20.8203V23.0391C50.1166 22.9714 51.3301 22.8698 52.3666 22.7344L52.4759 23.8438C51.3145 24.0469 50.1009 24.1849 48.8353 24.2578C47.5697 24.3255 46.2259 24.3594 44.8041 24.3594H43.8353L43.6009 23.1406H43.7572C44.2989 23.1354 44.8926 23.1302 45.5384 23.125C46.1895 23.1146 46.7572 23.1042 47.2416 23.0938V20.8203C46.6374 20.7318 46.1061 20.5391 45.6478 20.2422C45.1895 19.9453 44.8327 19.5651 44.5775 19.1016C44.3275 18.638 44.2051 18.1198 44.2103 17.5469C44.2051 16.901 44.3614 16.3255 44.6791 15.8203C45.002 15.3151 45.4499 14.9219 46.0228 14.6406C46.5957 14.3594 47.2468 14.2188 47.9759 14.2188ZM47.9759 15.4688C47.528 15.474 47.127 15.5625 46.7728 15.7344C46.4239 15.9062 46.1478 16.1484 45.9447 16.4609C45.7468 16.7734 45.6478 17.1354 45.6478 17.5469C45.6478 17.9583 45.7468 18.3203 45.9447 18.6328C46.1478 18.9453 46.4265 19.1875 46.7806 19.3594C47.1348 19.5312 47.5332 19.6146 47.9759 19.6094C48.4134 19.6146 48.8067 19.5312 49.1556 19.3594C49.5046 19.1875 49.778 18.9453 49.9759 18.6328C50.1791 18.3203 50.2832 17.9583 50.2884 17.5469C50.2832 17.1354 50.1817 16.7734 49.9837 16.4609C49.7858 16.1484 49.5124 15.9062 49.1634 15.7344C48.8145 15.5625 48.4186 15.474 47.9759 15.4688ZM54.6947 19.0156H56.8509V20.2656H54.6947V27.3281H53.2103V13.3281H54.6947V19.0156ZM72.8828 27.3281H71.4609V20.0938H69.6484V26.6094H68.2891V13.6094H69.6484V18.875H71.4609V13.3281H72.8828V27.3281ZM66.5859 16.2188H62.8203V22.7031C63.737 22.6927 64.5391 22.6615 65.2266 22.6094C65.9193 22.5573 66.6224 22.4635 67.3359 22.3281L67.4453 23.5469C66.6589 23.7083 65.8828 23.8177 65.1172 23.875C64.3516 23.9271 63.4036 23.9583 62.2734 23.9688H61.3359V15.0156H66.5859V16.2188ZM85.3441 19.1875H87.4534V20.4375H85.3441V27.3281H83.8597V13.3281H85.3441V19.1875ZM74.2034 23.5156C75.792 23.5156 77.0316 23.5026 77.9222 23.4766V22.0547C77.3961 21.9818 76.9352 21.8307 76.5394 21.6016C76.1488 21.3724 75.8467 21.0807 75.6331 20.7266C75.4248 20.3672 75.3232 19.9635 75.3284 19.5156C75.3232 18.9948 75.4586 18.5365 75.7347 18.1406C76.0159 17.7448 76.4092 17.4375 76.9144 17.2188C77.4248 17 78.0107 16.8906 78.6722 16.8906C79.3284 16.8906 79.9092 17 80.4144 17.2188C80.9248 17.4375 81.3232 17.7448 81.6097 18.1406C81.8961 18.5365 82.042 18.9948 82.0472 19.5156C82.042 19.9635 81.93 20.3672 81.7113 20.7266C81.4925 21.0807 81.1852 21.375 80.7894 21.6094C80.3935 21.8385 79.9326 21.9896 79.4066 22.0625V23.4141C80.7503 23.3568 81.9691 23.25 83.0628 23.0938L83.1566 24.1875C81.818 24.4271 80.4534 24.5807 79.0628 24.6484C77.6774 24.7161 76.1357 24.75 74.4378 24.75L74.2034 23.5156ZM82.8597 16.1719H74.4691V14.9844H77.9222V13.3594H79.4066V14.9844H82.8597V16.1719ZM78.6722 18.0469C78.2868 18.0469 77.9456 18.1068 77.6488 18.2266C77.3519 18.3464 77.1227 18.5182 76.9613 18.7422C76.7998 18.9661 76.7191 19.224 76.7191 19.5156C76.7191 19.9583 76.8961 20.3099 77.2503 20.5703C77.6097 20.8255 78.0836 20.9531 78.6722 20.9531C79.2607 20.9531 79.7321 20.8255 80.0863 20.5703C80.4456 20.3099 80.6253 19.9583 80.6253 19.5156C80.6253 19.224 80.5446 18.9661 80.3831 18.7422C80.2217 18.5182 79.9925 18.3464 79.6956 18.2266C79.3988 18.1068 79.0576 18.0469 78.6722 18.0469ZM94.8053 16.8438H87.8522V15.6406H90.6022V13.7344H92.0709V15.6406H94.8053V16.8438ZM91.3366 17.6875C91.9251 17.6875 92.4485 17.8255 92.9069 18.1016C93.3652 18.3724 93.7246 18.7526 93.985 19.2422C94.2454 19.7266 94.3782 20.2812 94.3834 20.9062C94.3782 21.5365 94.2454 22.099 93.985 22.5938C93.7246 23.0833 93.3652 23.4661 92.9069 23.7422C92.4485 24.0182 91.9251 24.1562 91.3366 24.1562C90.7584 24.1562 90.2376 24.0182 89.7741 23.7422C89.3105 23.4661 88.9485 23.0807 88.6881 22.5859C88.4277 22.0911 88.3001 21.5312 88.3053 20.9062C88.3001 20.2865 88.4277 19.7318 88.6881 19.2422C88.9485 18.7526 89.3105 18.3724 89.7741 18.1016C90.2376 17.8255 90.7584 17.6875 91.3366 17.6875ZM91.3366 18.9219C91.0032 18.9219 90.7064 19.0078 90.4459 19.1797C90.1855 19.3464 89.9824 19.5807 89.8366 19.8828C89.6907 20.1849 89.6178 20.526 89.6178 20.9062C89.6178 21.2969 89.6907 21.6432 89.8366 21.9453C89.9824 22.2422 90.1855 22.474 90.4459 22.6406C90.7064 22.8073 91.0032 22.8906 91.3366 22.8906C91.6699 22.8906 91.9668 22.8073 92.2272 22.6406C92.4928 22.474 92.6985 22.2422 92.8444 21.9453C92.9954 21.6432 93.0709 21.2969 93.0709 20.9062C93.0709 20.526 92.9954 20.1849 92.8444 19.8828C92.6985 19.5807 92.4928 19.3464 92.2272 19.1797C91.9616 19.0078 91.6647 18.9219 91.3366 18.9219ZM99.8678 27.3281H98.4616V20.375H96.8522V26.6719H95.4459V13.6406H96.8522V19.1562H98.4616V13.3281H99.8678V27.3281ZM114.204 25.5781H101.392V24.3438H104.454V20.6875C103.871 20.3646 103.418 19.9557 103.095 19.4609C102.772 18.9661 102.61 18.4115 102.61 17.7969C102.61 17.0729 102.829 16.4349 103.267 15.8828C103.709 15.3307 104.321 14.9036 105.103 14.6016C105.884 14.2943 106.772 14.1406 107.767 14.1406C108.767 14.1406 109.657 14.2943 110.438 14.6016C111.225 14.9036 111.837 15.3307 112.274 15.8828C112.717 16.4349 112.938 17.0729 112.938 17.7969C112.938 18.4062 112.782 18.9557 112.47 19.4453C112.157 19.9297 111.714 20.3333 111.142 20.6562V24.3438H114.204V25.5781ZM107.767 15.3281C107.037 15.3281 106.392 15.4297 105.829 15.6328C105.267 15.8307 104.829 16.1172 104.517 16.4922C104.204 16.862 104.048 17.2969 104.048 17.7969C104.048 18.2917 104.204 18.7266 104.517 19.1016C104.829 19.4766 105.267 19.7682 105.829 19.9766C106.392 20.1797 107.037 20.2812 107.767 20.2812C108.491 20.2812 109.134 20.1797 109.696 19.9766C110.264 19.7682 110.707 19.4766 111.024 19.1016C111.342 18.7266 111.501 18.2917 111.501 17.7969C111.501 17.3021 111.342 16.8672 111.024 16.4922C110.712 16.1172 110.272 15.8307 109.704 15.6328C109.142 15.4297 108.496 15.3281 107.767 15.3281ZM109.642 24.3438V21.2266C109.074 21.3672 108.449 21.4375 107.767 21.4375C107.11 21.4375 106.496 21.3698 105.923 21.2344V24.3438H109.642ZM117.337 22.7344H115.79L115.65 14.6875H117.478L117.337 22.7344ZM116.572 26.1094C116.374 26.1094 116.186 26.0599 116.009 25.9609C115.837 25.862 115.702 25.7266 115.603 25.5547C115.504 25.3828 115.457 25.1979 115.462 25C115.457 24.8021 115.504 24.6172 115.603 24.4453C115.702 24.2734 115.837 24.138 116.009 24.0391C116.186 23.9401 116.374 23.8906 116.572 23.8906C116.764 23.8906 116.947 23.9401 117.118 24.0391C117.29 24.138 117.426 24.2734 117.525 24.4453C117.629 24.6172 117.681 24.8021 117.681 25C117.681 25.1979 117.629 25.3828 117.525 25.5547C117.426 25.7266 117.29 25.862 117.118 25.9609C116.947 26.0599 116.764 26.1094 116.572 26.1094Z" fill="white"/>
</g>
<path d="M67.5 46L63 38L72 38L67.5 46Z" fill="#1A75FF"/>
<defs>
<filter id="filter0_d_671_1546" x="0" y="0" width="135" height="44" filterUnits="userSpaceOnUse" color-interpolation-filters="sRGB">
<feFlood flood-opacity="0" result="BackgroundImageFix"/>
<feColorMatrix in="SourceAlpha" type="matrix" values="0 0 0 0 0 0 0 0 0 0 0 0 0 0 0 0 0 0 127 0" result="hardAlpha"/>
<feOffset dy="2"/>
<feGaussianBlur stdDeviation="2"/>
<feComposite in2="hardAlpha" operator="out"/>
<feColorMatrix type="matrix" values="0 0 0 0 0.1 0 0 0 0 0.46 0 0 0 0 1 0 0 0 0.45 0"/>
<feBlend mode="normal" in2="BackgroundImageFix" result="effect1_dropShadow_671_1546"/>
<feBlend mode="normal" in="SourceGraphic" in2="effect1_dropShadow_671_1546" result="shape"/>
</filter>
</defs>
</svg>
